<svg width="241" height="43" viewBox="0 0 241 43" fill="none" xmlns="http://www.w3.org/2000/svg">
<path d="M60 30C58.2 30 56.4 29.6 54.8 28.7C53.3 27.8 52.1 26.6 51.4 25C50.6 23.2 50.2 21.3 50.2 19.4C50.2 17.5 50.6 15.5 51.4 13.8C52.1 12.3 53.3 11 54.8 10.1C56.3 9.2 58.2 8.7 60 8.8C61.8 8.8 63.6 9.2 65.2 10.1C66.7 11 67.9 12.2 68.6 13.8C70.2 17.4 70.2 21.5 68.6 25C67.9 26.5 66.7 27.8 65.2 28.7C63.6 29.6 61.8 30 60 30ZM60 27C61.7 27.1 63.3 26.4 64.4 25C65.6 23.4 66.1 21.4 66 19.4C66.1 17.4 65.6 15.4 64.4 13.8C62.2 11.3 58.4 11.1 55.9 13.4C55.7 13.5 55.6 13.7 55.5 13.8C54.3 15.4 53.8 17.4 53.9 19.4C53.8 21.4 54.3 23.4 55.5 25C56.6 26.3 58.3 27 60 27Z" fill="white"/>
<path d="M93.4 8.89999C93.9 8.89999 94.4 9.09999 94.7 9.39999C95 9.79999 95.2 10.3 95.2 10.8V28.2C95.2 28.7 95.1 29.1 94.7 29.5C94.4 29.8 93.9 30 93.5 30C93.1 30 92.6 29.9 92.3 29.5C92 29.1 91.8 28.7 91.9 28.2V16L86.9 25.4C86.7 25.8 86.4 26.1 86.1 26.4C85.8 26.6 85.5 26.7 85.1 26.7C84.7 26.7 84.4 26.6 84.1 26.4C83.8 26.1 83.5 25.8 83.3 25.4L78.3 16.1V28C78.3 28.5 78.2 28.9 77.8 29.3C77.5 29.6 77 29.8 76.6 29.8C76.2 29.8 75.7 29.7 75.4 29.3C75.1 28.9 74.9 28.5 75 28V10.8C75 10.3 75.1 9.79999 75.5 9.39999C75.8 8.99999 76.3 8.89999 76.8 8.89999C77.6 8.89999 78.3 9.39999 78.6 10.2L85.1 22.6L91.6 10.2C91.9 9.39999 92.6 8.89999 93.4 8.89999Z" fill="white"/>
<path d="M116.8 8.89999C117.3 8.89999 117.8 9.09999 118.1 9.39999C118.4 9.79999 118.6 10.3 118.6 10.8V28C118.6 28.5 118.4 29 118.1 29.4C117.8 29.7 117.3 29.9 116.8 29.9C116.2 29.9 115.7 29.7 115.4 29.2L104.7 15.3V28C104.7 28.5 104.6 29 104.2 29.4C103.9 29.8 103.4 29.9 102.9 29.9C102.4 29.9 101.9 29.7 101.6 29.4C101.3 29 101.1 28.5 101.1 28V10.8C101.1 10.3 101.3 9.79999 101.6 9.39999C101.9 9.09999 102.4 8.89999 102.9 8.89999C103.5 8.89999 104 9.09999 104.3 9.59999L115 23.5V10.8C115 10.3 115.1 9.79999 115.5 9.39999C115.9 9.09999 116.3 8.89999 116.8 8.89999Z" fill="white"/>
<path d="M126.4 29.9C125.9 29.9 125.4 29.7 125 29.4C124.7 29 124.5 28.5 124.5 28V10.8C124.4 9.8 125.2 9 126.1 8.9C126.2 8.9 126.3 8.9 126.3 8.9C127.3 8.8 128.1 9.6 128.2 10.6C128.2 10.7 128.2 10.7 128.2 10.8V28C128.2 28.5 128 29 127.7 29.4C127.4 29.7 126.9 29.9 126.4 29.9Z" fill="white"/>
<path d="M146.9 19C148 19.3 149 19.9 149.7 20.8C150.4 21.7 150.7 22.9 150.7 24C150.8 25.6 150.1 27.1 148.8 28.1C147.3 29.2 145.4 29.7 143.6 29.6H136C135.5 29.6 135 29.5 134.7 29.1C134.4 28.7 134.2 28.3 134.2 27.8V10.8C134.2 10.3 134.3 9.79999 134.7 9.49999C135.1 9.19999 135.5 8.99999 136 8.99999H143.3C145.1 8.89999 146.9 9.39998 148.4 10.4C150.4 12.1 150.9 15 149.4 17.2C148.7 18.1 147.9 18.7 146.9 19ZM137.9 17.8H142.7C145.3 17.8 146.6 16.8 146.6 14.9C146.7 14.1 146.3 13.2 145.6 12.7C144.7 12.2 143.7 11.9 142.7 12H137.9V17.8ZM143.2 26.8C144.3 26.9 145.3 26.6 146.2 26.1C146.9 25.5 147.2 24.7 147.1 23.8C147.2 22.9 146.8 22.1 146.1 21.5C145.2 20.9 144.2 20.6 143.1 20.7H137.9V26.8H143.2Z" fill="white"/>
<path d="M164.9 30C163.1 30 161.3 29.6 159.7 28.7C158.2 27.8 157 26.6 156.3 25C155.5 23.2 155.1 21.3 155.1 19.4C155.1 17.5 155.5 15.5 156.3 13.8C157 12.3 158.2 11 159.7 10.1C161.3 9.19999 163.1 8.79999 164.9 8.79999C166.7 8.79999 168.5 9.19999 170.1 10.1C171.6 11 172.8 12.2 173.5 13.8C175.1 17.4 175.1 21.5 173.5 25C172.8 26.5 171.6 27.8 170.1 28.7C168.5 29.6 166.7 30 164.9 30ZM164.9 27C166.6 27.1 168.2 26.4 169.3 25C170.5 23.4 171 21.4 170.9 19.4C171 17.4 170.5 15.4 169.3 13.8C167 11.3 163.2 11.2 160.8 13.4C160.7 13.5 160.5 13.6 160.4 13.8C159.2 15.4 158.7 17.4 158.8 19.4C158.7 21.4 159.2 23.4 160.4 25C161.5 26.3 163.2 27 164.9 27Z" fill="white"/>
<path d="M189.2 30C187.4 30 185.6 29.6 184 28.7C182.5 27.8 181.3 26.6 180.6 25C179.8 23.2 179.4 21.3 179.4 19.4C179.4 17.5 179.8 15.6 180.6 13.8C181.3 12.3 182.5 11 184 10.1C187.3 8.40001 191.2 8.40001 194.5 10.1C196 11 197.2 12.2 197.9 13.8C199.5 17.4 199.5 21.5 197.9 25C197.2 26.5 196 27.8 194.5 28.7C192.8 29.6 191 30 189.2 30ZM189.2 27C190.9 27.1 192.5 26.4 193.6 25C194.8 23.4 195.3 21.4 195.2 19.4C195.3 17.4 194.8 15.4 193.6 13.8C191.3 11.3 187.5 11.2 185.1 13.4C185 13.5 184.8 13.6 184.7 13.8C183.5 15.4 183 17.4 183.1 19.4C183 21.4 183.5 23.4 184.7 25C185.8 26.3 187.5 27 189.2 27Z" fill="white"/>
<path d="M220.3 26.9C220.7 27.2 220.9 27.7 220.9 28.1C220.9 28.6 220.7 29 220.4 29.3C220.1 29.6 219.7 29.8 219.2 29.8C218.7 29.8 218.2 29.6 217.8 29.2L208 20.1V28C208 28.5 207.8 29 207.5 29.4C207.1 29.8 206.6 30 206.1 29.9C205.6 29.9 205.1 29.7 204.7 29.4C204.4 29 204.2 28.5 204.2 28V10.8C204.1 9.8 204.9 9 205.8 8.9C205.9 8.9 206 8.9 206 8.9C207 8.8 207.8 9.6 207.9 10.6C207.9 10.7 207.9 10.7 207.9 10.8V18.3L217.3 9.4C217.6 9.1 218.1 8.9 218.5 8.9C218.9 8.9 219.4 9.1 219.7 9.4C220 9.7 220.2 10.1 220.2 10.6C220.2 11.1 220 11.5 219.6 11.8L211.7 19L220.3 26.9Z" fill="white"/>
<path d="M232.2 30C230.8 30 229.3 29.8 227.9 29.4C226.7 29.1 225.6 28.5 224.7 27.8C223.9 27.2 223.8 26.1 224.4 25.3C224.6 25 224.9 24.8 225.3 24.8C225.7 24.8 226.2 25 226.5 25.2C227.3 25.8 228.2 26.2 229.1 26.5C230.1 26.8 231.1 26.9 232.1 26.9C233.2 27 234.4 26.7 235.4 26.1C236.1 25.6 236.6 24.8 236.5 23.9C236.5 23.2 236.1 22.5 235.4 22.2C234.3 21.7 233.1 21.3 231.8 21C230.4 20.7 229 20.3 227.6 19.7C226.6 19.3 225.8 18.7 225.2 17.8C224.6 16.9 224.3 15.9 224.4 14.9C224.4 13.7 224.7 12.6 225.4 11.7C226.1 10.7 227.1 9.90001 228.3 9.50001C232 8.00001 236.1 8.60001 239.3 10.9C239.5 11.1 239.7 11.3 239.8 11.5C239.9 11.7 240 12 240 12.3C240 12.7 239.9 13.1 239.6 13.4C239.4 13.7 239.1 13.8 238.7 13.8C238.5 13.8 238.3 13.8 238.2 13.7C238 13.6 237.8 13.5 237.6 13.4C236.9 12.9 236.1 12.4 235.3 12.1C234.4 11.8 233.5 11.6 232.5 11.7C231.4 11.6 230.3 11.9 229.3 12.5C228.6 13 228.1 13.9 228.2 14.7C228.2 15.4 228.5 16.2 229.2 16.5C230.3 17.1 231.5 17.5 232.7 17.7C234.1 18 235.6 18.4 236.9 19C237.9 19.4 238.7 20 239.4 20.8C240 21.6 240.3 22.6 240.3 23.6C240.3 24.8 240 25.9 239.3 26.8C238.6 27.8 237.6 28.5 236.5 29C235 29.7 233.6 30 232.2 30Z" fill="white"/>
<path d="M4 -0.200012H11.3C13.5 -0.200012 15.3 1.59999 15.3 3.79999V38.6C15.3 40.8 13.5 42.6 11.3 42.6H4C1.8 42.6 0 40.8 0 38.6V3.89999C0 1.59999 1.8 -0.100012 4 -0.200012Z" fill="white"/>
<path d="M19.3 -0.200012H24.4C26.6 -0.200012 28.4 1.59999 28.4 3.79999V38.5C28.4 40.7 26.6 42.5 24.4 42.5H19.3C17.1 42.5 15.3 40.7 15.3 38.5V3.79999C15.3 1.59999 17.1 -0.200012 19.3 -0.200012Z" fill="white"/>
<path d="M31.5 0.300011L34.4 -0.099989C36.6 -0.399989 38.6 1.10001 39 3.20001L44.2 37.6C44.5 39.8 43 41.8 40.9 42.2L38 42.6C35.8 42.9 33.8 41.4 33.4 39.3L28.1 4.90001C27.8 2.70001 29.3 0.700011 31.5 0.300011Z" fill="white"/>
</svg>
