<svg width="34" height="34" viewBox="0 0 34 34" fill="none" xmlns="http://www.w3.org/2000/svg">
<path d="M26.418 21.726L24.31 20.026C23.596 19.448 22.576 19.4137 21.828 19.958L19.822 21.42C19.55 21.624 19.1763 21.59 18.938 21.352L15.64 18.36L12.614 15.028C12.376 14.79 12.342 14.416 12.546 14.144L14.008 12.138C14.552 11.39 14.518 10.37 13.94 9.656L12.24 7.548C11.492 6.596 10.064 6.528 9.214 7.378L7.378 9.214C6.97 9.622 6.766 10.2 6.766 10.744C7.004 15.062 8.976 19.176 11.866 22.066C14.756 24.956 18.836 26.928 23.188 27.166C23.766 27.2 24.31 26.9617 24.718 26.5537L26.554 24.718C27.472 23.902 27.37 22.474 26.418 21.726Z" fill="white"/>
</svg>
