<svg id="Layer_1" data-name="Layer 1" xmlns="http://www.w3.org/2000/svg" xmlns:xlink="http://www.w3.org/1999/xlink" viewBox="0 0 240.31 42.83"><defs><style>.cls-1{fill:none;}.cls-2{fill:#008037;}.cls-3{clip-path:url(#clip-path);}.cls-4{clip-path:url(#clip-path-2);}.cls-5{fill:#7073ee;}.cls-6{clip-path:url(#clip-path-3);}.cls-7{clip-path:url(#clip-path-4);}.cls-8{fill:#faba26;}</style><clipPath id="clip-path" transform="translate(-149.01 -232.31)"><rect class="cls-1" x="149.01" y="232.35" width="15.27" height="42.76"/></clipPath><clipPath id="clip-path-2" transform="translate(-149.01 -232.31)"><rect class="cls-1" x="164.26" y="232.31" width="13.09" height="42.76"/></clipPath><clipPath id="clip-path-3" transform="translate(-149.01 -232.31)"><rect class="cls-1" x="176" y="232" width="17.33" height="44"/></clipPath><clipPath id="clip-path-4" transform="translate(-149.01 -232.31)"><rect class="cls-1" x="179.7" y="232.36" width="10.91" height="42.76" transform="translate(-36.17 30.85) rotate(-8.68)"/></clipPath></defs><title>omnibooks-svg-transparent</title><path class="cls-2" d="M209,263.23a10.27,10.27,0,0,1-5.25-1.29,8.61,8.61,0,0,1-3.42-3.69,12.66,12.66,0,0,1-1.19-5.64,12.53,12.53,0,0,1,1.19-5.61,8.6,8.6,0,0,1,3.42-3.69A10.37,10.37,0,0,1,209,242a10.25,10.25,0,0,1,5.22,1.29,8.68,8.68,0,0,1,3.4,3.69,13.78,13.78,0,0,1,0,11.25,8.49,8.49,0,0,1-3.42,3.69A10.08,10.08,0,0,1,209,263.23Zm0-3a5.41,5.41,0,0,0,4.43-2,8.75,8.75,0,0,0,1.61-5.64,8.59,8.59,0,0,0-1.61-5.61,6,6,0,0,0-8.91,0,8.53,8.53,0,0,0-1.61,5.61,8.69,8.69,0,0,0,1.61,5.64A5.44,5.44,0,0,0,209,260.21Z" transform="translate(-149.01 -232.31)"/><path class="cls-2" d="M242.42,242.15a1.75,1.75,0,0,1,1.31.52,1.84,1.84,0,0,1,.5,1.35v17.36a1.74,1.74,0,0,1-.48,1.29,1.7,1.7,0,0,1-1.23.46,1.59,1.59,0,0,1-1.19-.46,1.85,1.85,0,0,1-.43-1.29V249.29l-5,9.44a3,3,0,0,1-.78,1,1.47,1.47,0,0,1-1,.31,1.56,1.56,0,0,1-1-.29,2.52,2.52,0,0,1-.77-1l-5-9.29v11.94a1.78,1.78,0,0,1-.46,1.27,1.79,1.79,0,0,1-2.42,0,1.85,1.85,0,0,1-.44-1.29V244a1.87,1.87,0,0,1,.48-1.35,1.73,1.73,0,0,1,1.32-.52,2,2,0,0,1,1.77,1.27l6.52,12.39,6.48-12.39A1.93,1.93,0,0,1,242.42,242.15Z" transform="translate(-149.01 -232.31)"/><path class="cls-2" d="M265.82,242.15a1.72,1.72,0,0,1,1.31.52,1.87,1.87,0,0,1,.48,1.35v17.21a1.89,1.89,0,0,1-.5,1.38,1.87,1.87,0,0,1-2.73-.15L253.7,248.54v12.69a2,2,0,0,1-.48,1.38,1.64,1.64,0,0,1-1.3.52,1.66,1.66,0,0,1-1.29-.52,2.05,2.05,0,0,1-.46-1.38V244a1.84,1.84,0,0,1,.5-1.35,1.79,1.79,0,0,1,1.32-.52,1.66,1.66,0,0,1,1.41.66l10.67,13.88V244a1.87,1.87,0,0,1,.48-1.35A1.66,1.66,0,0,1,265.82,242.15Z" transform="translate(-149.01 -232.31)"/><path class="cls-2" d="M275.41,263.13a1.85,1.85,0,0,1-1.38-.52,1.93,1.93,0,0,1-.5-1.38V244a1.84,1.84,0,0,1,.5-1.35,1.89,1.89,0,0,1,1.38-.52,1.83,1.83,0,0,1,1.37.52,1.78,1.78,0,0,1,.52,1.35v17.21a1.86,1.86,0,0,1-.52,1.38A1.79,1.79,0,0,1,275.41,263.13Z" transform="translate(-149.01 -232.31)"/><path class="cls-2" d="M296,252.29a5,5,0,0,1,2.75,1.82,5.14,5.14,0,0,1,1,3.23,5,5,0,0,1-1.89,4.12,8.2,8.2,0,0,1-5.21,1.5H285a1.82,1.82,0,0,1-1.33-.46,1.79,1.79,0,0,1-.48-1.33V244.09a1.75,1.75,0,0,1,.48-1.32,1.83,1.83,0,0,1,1.33-.48h7.28a8,8,0,0,1,5.06,1.44,5.16,5.16,0,0,1,1,6.81A5,5,0,0,1,296,252.29Zm-9-1.29h4.79q3.9,0,3.9-2.89a2.47,2.47,0,0,0-1-2.17,5,5,0,0,0-2.92-.71h-4.79Zm5.27,9a4.86,4.86,0,0,0,3-.73,2.7,2.7,0,0,0,.94-2.29,2.73,2.73,0,0,0-1-2.29,4.71,4.71,0,0,0-3-.77h-5.27V260Z" transform="translate(-149.01 -232.31)"/><path class="cls-2" d="M313.92,263.23a10.32,10.32,0,0,1-5.25-1.29,8.65,8.65,0,0,1-3.41-3.69,12.53,12.53,0,0,1-1.19-5.64,12.39,12.39,0,0,1,1.19-5.61,8.58,8.58,0,0,1,3.41-3.69,10.42,10.42,0,0,1,5.25-1.29,10.29,10.29,0,0,1,5.23,1.29,8.68,8.68,0,0,1,3.4,3.69,13.89,13.89,0,0,1,0,11.25,8.61,8.61,0,0,1-3.42,3.69A10.09,10.09,0,0,1,313.92,263.23Zm0-3a5.41,5.41,0,0,0,4.44-2,8.75,8.75,0,0,0,1.6-5.64,8.59,8.59,0,0,0-1.6-5.61,6.05,6.05,0,0,0-8.92,0,8.59,8.59,0,0,0-1.6,5.61,8.75,8.75,0,0,0,1.6,5.64A5.47,5.47,0,0,0,313.92,260.21Z" transform="translate(-149.01 -232.31)"/><path class="cls-2" d="M338.22,263.23a10.27,10.27,0,0,1-5.25-1.29,8.61,8.61,0,0,1-3.42-3.69,12.66,12.66,0,0,1-1.19-5.64,12.53,12.53,0,0,1,1.19-5.61,8.6,8.6,0,0,1,3.42-3.69,11.29,11.29,0,0,1,10.48,0,8.66,8.66,0,0,1,3.39,3.69,13.78,13.78,0,0,1,0,11.25,8.49,8.49,0,0,1-3.42,3.69A10.08,10.08,0,0,1,338.22,263.23Zm0-3a5.41,5.41,0,0,0,4.43-2,8.75,8.75,0,0,0,1.61-5.64,8.59,8.59,0,0,0-1.61-5.61,6,6,0,0,0-8.91,0,8.59,8.59,0,0,0-1.61,5.61,8.75,8.75,0,0,0,1.61,5.64A5.45,5.45,0,0,0,338.22,260.21Z" transform="translate(-149.01 -232.31)"/><path class="cls-2" d="M369.35,260.13a1.69,1.69,0,0,1,.58,1.25,1.63,1.63,0,0,1-.52,1.18,1.66,1.66,0,0,1-1.21.53,1.86,1.86,0,0,1-1.35-.63l-9.78-9.15v7.92a1.86,1.86,0,0,1-.52,1.38,1.79,1.79,0,0,1-1.37.52,1.86,1.86,0,0,1-1.38-.52,1.93,1.93,0,0,1-.5-1.38V244a1.84,1.84,0,0,1,.5-1.35,1.9,1.9,0,0,1,1.38-.52,1.83,1.83,0,0,1,1.37.52,1.78,1.78,0,0,1,.52,1.35v7.54l9.44-8.85a1.67,1.67,0,0,1,1.21-.54,1.63,1.63,0,0,1,1.19.52,1.66,1.66,0,0,1,.52,1.19,1.72,1.72,0,0,1-.58,1.23l-7.9,7.2Z" transform="translate(-149.01 -232.31)"/><path class="cls-2" d="M381.26,263.23a14.89,14.89,0,0,1-4.27-.6,9.25,9.25,0,0,1-3.25-1.63,1.63,1.63,0,0,1-.69-1.41,1.68,1.68,0,0,1,.35-1.07,1.12,1.12,0,0,1,.88-.46,2.44,2.44,0,0,1,1.21.42,8.92,8.92,0,0,0,2.64,1.31,10.07,10.07,0,0,0,3,.42,5.9,5.9,0,0,0,3.27-.75,2.44,2.44,0,0,0,1.15-2.19,1.89,1.89,0,0,0-1.06-1.71A14.08,14.08,0,0,0,381,254.4a21.24,21.24,0,0,1-4.19-1.29,6,6,0,0,1-2.44-1.88,4.88,4.88,0,0,1-.81-2.89,5.46,5.46,0,0,1,1-3.25,6.73,6.73,0,0,1,2.85-2.25,10,10,0,0,1,4.13-.82,10.26,10.26,0,0,1,6.83,2.23,2.5,2.5,0,0,1,.54.65,1.57,1.57,0,0,1,.17.77,1.6,1.6,0,0,1-.38,1.06,1.09,1.09,0,0,1-.87.46,1.8,1.8,0,0,1-.54-.08,3.17,3.17,0,0,1-.65-.34,9.94,9.94,0,0,0-2.33-1.29,7.74,7.74,0,0,0-2.77-.44,5.4,5.4,0,0,0-3.17.82,2.61,2.61,0,0,0-1.14,2.25,2,2,0,0,0,1,1.83,12.45,12.45,0,0,0,3.5,1.21,23.56,23.56,0,0,1,4.23,1.31,6,6,0,0,1,2.47,1.83,4.31,4.31,0,0,1,.88,2.77,5.28,5.28,0,0,1-1,3.21,6.63,6.63,0,0,1-2.83,2.19A10.9,10.9,0,0,1,381.26,263.23Z" transform="translate(-149.01 -232.31)"/><g class="cls-3"><path class="cls-2" d="M153,232.35h7.26a4,4,0,0,1,4,4v34.75a4,4,0,0,1-4,4H153a4,4,0,0,1-4-4V236.36a4,4,0,0,1,4-4" transform="translate(-149.01 -232.31)"/></g><g class="cls-4"><path class="cls-5" d="M168.27,232.31h5.06a4,4,0,0,1,4,4v34.74a4,4,0,0,1-4,4h-5.06a4,4,0,0,1-4-4V236.32a4,4,0,0,1,4-4" transform="translate(-149.01 -232.31)"/></g><g class="cls-6"><g class="cls-7"><path class="cls-8" d="M180.49,232.82l2.87-.43a4,4,0,0,1,4.56,3.35l5.25,34.35a4,4,0,0,1-3.36,4.57l-2.86.43a4,4,0,0,1-4.56-3.35l-5.25-34.35a4,4,0,0,1,3.35-4.57" transform="translate(-149.01 -232.31)"/></g></g></svg>